<?xml version="1.0" encoding="UTF-8"?>
<svg width="400" height="200" viewBox="0 0 400 200" fill="none" xmlns="http://www.w3.org/2000/svg">
  <rect width="400" height="200" fill="#003319"/>
  <!-- Phoenix/Bird Logo -->
  <g transform="translate(50, 50)">
    <!-- Bird body -->
    <path d="M50 100 C30 80, 20 60, 30 40 C40 20, 60 20, 80 30 C100 40, 120 60, 110 80 C100 100, 80 110, 60 110 C55 105, 50 100, 50 100 Z" fill="#DAA520"/>
    <!-- Wing -->
    <path d="M60 50 C70 45, 80 50, 85 60 C90 70, 85 80, 75 85 C65 80, 60 70, 60 60 C60 55, 60 50, 60 50 Z" fill="#DAA520"/>
    <!-- Tail feathers -->
    <path d="M30 70 C20 65, 15 75, 20 85 C25 95, 35 90, 40 80 C35 75, 30 70, 30 70 Z" fill="#DAA520"/>
    <!-- Head crest -->
    <path d="M65 30 C70 25, 75 20, 80 25 C75 30, 70 35, 65 30 Z" fill="#DAA520"/>
  </g>
  
  <!-- Text: MpowHR -->
  <text x="150" y="120" font-family="serif" font-size="48" font-weight="bold" fill="#DAA520">MpowHR</text>
  
  <!-- Subtitle: PEOPLE BRILLIANCE -->
  <text x="150" y="150" font-family="sans-serif" font-size="16" font-weight="normal" fill="#DAA520" letter-spacing="3px">PEOPLE BRILLIANCE</text>
</svg>